<svg width="16" height="16" viewBox="0 0 16 16" fill="none" xmlns="http://www.w3.org/2000/svg">
<g opacity="0.99">
<path fill-rule="evenodd" clip-rule="evenodd" d="M7.12467 0.00245235C7.29465 0.00219615 7.47752 0.00226955 7.67487 0.00234275L8.00013 0.00245235C10.6057 0.00245235 10.9145 0.0117849 11.9434 0.0585589C12.8949 0.102076 13.4113 0.2611 13.7553 0.394688C14.2107 0.571572 14.5354 0.783043 14.8768 1.12463C15.2183 1.46624 15.4297 1.79158 15.607 2.24702C15.7406 2.59065 15.8998 3.10714 15.9431 4.05872C15.9899 5.08757 16 5.39665 16 8.00132C16 10.606 15.9899 10.9151 15.9431 11.9439C15.8996 12.8955 15.7406 13.412 15.607 13.7556C15.4301 14.2111 15.2183 14.5354 14.8768 14.8768C14.5352 15.2184 14.2109 15.4299 13.7553 15.6067C13.4117 15.741 12.8949 15.8995 11.9434 15.9431C10.9147 15.9898 10.6057 16 8.00013 16C5.39432 16 5.0855 15.9898 4.05679 15.9431C3.10532 15.8991 2.5889 15.7401 2.24472 15.6066C1.7893 15.4296 1.46401 15.2182 1.12247 14.8766C0.780896 14.535 0.569451 14.2105 0.392186 13.7548C0.258615 13.4112 0.0994277 12.8947 0.0560995 11.9431C0.00936802 10.9143 0 10.6052 0 7.9989C0 5.39259 0.00936802 5.08515 0.0560995 4.05627C0.0996107 3.10469 0.258615 2.58823 0.392186 2.2442C0.569048 1.78872 0.780896 1.46339 1.12247 1.12181C1.46401 0.780189 1.7893 0.568718 2.24472 0.39143C2.58871 0.25722 3.10532 0.0986359 4.05679 0.0548996C4.95702 0.0142377 5.30591 0.00204956 7.12467 0V0.00245235ZM13.2091 1.62307C12.5626 1.62307 12.038 2.14707 12.038 2.79389C12.038 3.44045 12.5626 3.96507 13.2091 3.96507C13.8556 3.96507 14.3801 3.44045 14.3801 2.79389C14.3801 2.14728 13.8556 1.62307 13.2091 1.62307ZM2.98888 8.0034C2.98888 5.23547 5.23276 2.99127 8.00038 2.99127C10.768 2.99127 13.011 5.23547 13.011 8.0034C13.011 10.7714 10.768 13.0145 8.00038 13.0145C5.23276 13.0145 2.98888 10.7714 2.98888 8.0034Z" fill="#005AA5"/>
<path fill-rule="evenodd" clip-rule="evenodd" d="M8.00001 5.71429C9.26229 5.71429 10.2857 6.73758 10.2857 8.00001C10.2857 9.26229 9.26229 10.2857 8.00001 10.2857C6.73758 10.2857 5.71429 9.26229 5.71429 8.00001C5.71429 6.73758 6.73758 5.71429 8.00001 5.71429Z" fill="#005AA5"/>
</g>
</svg>
