<svg width="36" height="36" viewBox="0 0 36 36" fill="none" xmlns="http://www.w3.org/2000/svg">
<path d="M18 6C15.6266 6 13.3066 6.70379 11.3332 8.02236C9.35977 9.34094 7.8217 11.2151 6.91345 13.4078C6.0052 15.6005 5.76756 18.0133 6.23058 20.3411C6.6936 22.6689 7.83649 24.807 9.51472 26.4853C11.193 28.1635 13.3311 29.3064 15.6589 29.7694C17.9867 30.2324 20.3995 29.9948 22.5922 29.0865C24.7849 28.1783 26.6591 26.6402 27.9776 24.6668C29.2962 22.6934 30 20.3734 30 18C29.9963 14.8185 28.7308 11.7685 26.4812 9.51884C24.2315 7.26922 21.1815 6.00374 18 6ZM18 28.5882C15.9058 28.5882 13.8587 27.9672 12.1175 26.8038C10.3763 25.6403 9.01915 23.9867 8.21775 22.0519C7.41635 20.1172 7.20667 17.9883 7.61522 15.9343C8.02377 13.8804 9.0322 11.9938 10.513 10.513C11.9938 9.03219 13.8804 8.02376 15.9343 7.61521C17.9883 7.20666 20.1172 7.41635 22.0519 8.21775C23.9867 9.01914 25.6403 10.3763 26.8038 12.1175C27.9672 13.8587 28.5882 15.9058 28.5882 18C28.5851 20.8072 27.4686 23.4986 25.4836 25.4836C23.4986 27.4686 20.8072 28.5851 18 28.5882ZM25.2941 18C25.2941 18.1872 25.2197 18.3668 25.0874 18.4991C24.955 18.6315 24.7754 18.7059 24.5882 18.7059H18C17.8128 18.7059 17.6332 18.6315 17.5009 18.4991C17.3685 18.3668 17.2941 18.1872 17.2941 18V11.4118C17.2941 11.2246 17.3685 11.045 17.5009 10.9126C17.6332 10.7803 17.8128 10.7059 18 10.7059C18.1872 10.7059 18.3668 10.7803 18.4991 10.9126C18.6315 11.045 18.7059 11.2246 18.7059 11.4118V17.2941H24.5882C24.7754 17.2941 24.955 17.3685 25.0874 17.5009C25.2197 17.6332 25.2941 17.8128 25.2941 18Z" fill="white" fill-opacity="0.8"/>
</svg>
