<svg width="36" height="36" viewBox="0 0 36 36" fill="none" xmlns="http://www.w3.org/2000/svg">
<g clip-path="url(#clip0_883_4028)">
<path d="M27.0015 -0.000488281C27.3179 -0.000488281 27.6108 0.0581055 27.8804 0.175293C28.1499 0.29248 28.3843 0.450684 28.5835 0.649902C28.7827 0.849121 28.9468 1.08936 29.0757 1.37061C29.2046 1.65186 29.2632 1.94482 29.2515 2.24951V33.7495C29.2515 34.0659 29.1929 34.3589 29.0757 34.6284C28.9585 34.8979 28.8003 35.1323 28.6011 35.3315C28.4019 35.5308 28.1616 35.6948 27.8804 35.8237C27.5991 35.9526 27.3062 36.0112 27.0015 35.9995H9.00146C8.68506 35.9995 8.39209 35.9409 8.12256 35.8237C7.85303 35.7065 7.61865 35.5483 7.41943 35.3491C7.22021 35.1499 7.05615 34.9097 6.92725 34.6284C6.79834 34.3472 6.73975 34.0542 6.75146 33.7495V2.24951C6.75146 1.93311 6.81006 1.64014 6.92725 1.37061C7.04443 1.10107 7.20264 0.866699 7.40186 0.66748C7.60107 0.468262 7.84131 0.304199 8.12256 0.175293C8.40381 0.0463867 8.69678 -0.012207 9.00146 -0.000488281H27.0015ZM27.0015 2.24951H9.00146V33.7495H27.0015V2.24951ZM15.7515 29.2495H20.2515V31.4995H15.7515V29.2495Z" fill="white"/>
</g>
<defs>
<clipPath id="clip0_883_4028">
<rect width="36" height="36" fill="white"/>
</clipPath>
</defs>
</svg>
