<svg width="28" height="36" viewBox="0 0 28 36" fill="none" xmlns="http://www.w3.org/2000/svg">
<path d="M15 0C18.1826 0 21.2348 1.25745 23.4853 3.49572C25.7357 5.73399 27 8.76974 27 11.9351C27 16.9785 23.4369 22.4748 16.4031 28.4828C16.012 28.8169 15.5133 29.0005 14.9977 29C14.4821 28.9996 13.9838 28.8152 13.5932 28.4803L13.128 28.0788C6.40554 22.2275 3 16.8659 3 11.9351C3 8.76974 4.26428 5.73399 6.51472 3.49572C8.76516 1.25745 11.8174 0 15 0ZM15 1.83618C12.307 1.83618 9.72436 2.90017 7.82015 4.79409C5.91593 6.68802 4.84615 9.25673 4.84615 11.9351C4.84615 16.222 7.98215 21.1613 14.3403 26.6943L14.7994 27.0897C14.8552 27.1374 14.9264 27.1637 15 27.1637C15.0736 27.1637 15.1448 27.1374 15.2006 27.0897C21.8665 21.3951 25.1538 16.3236 25.1538 11.9351C25.1538 10.6089 24.8912 9.2957 24.3809 8.07043C23.8707 6.84517 23.1227 5.73187 22.1799 4.79409C21.237 3.85632 20.1176 3.11243 18.8857 2.60491C17.6538 2.09739 16.3334 1.83618 15 1.83618ZM15 7.3447C16.2241 7.3447 17.398 7.82834 18.2636 8.68921C19.1291 9.55008 19.6154 10.7177 19.6154 11.9351C19.6154 13.1526 19.1291 14.3202 18.2636 15.1811C17.398 16.0419 16.2241 16.5256 15 16.5256C13.7759 16.5256 12.602 16.0419 11.7364 15.1811C10.8709 14.3202 10.3846 13.1526 10.3846 11.9351C10.3846 10.7177 10.8709 9.55008 11.7364 8.68921C12.602 7.82834 13.7759 7.3447 15 7.3447ZM15 9.18088C14.2656 9.18088 13.5612 9.47106 13.0419 9.98758C12.5225 10.5041 12.2308 11.2047 12.2308 11.9351C12.2308 12.6656 12.5225 13.3662 13.0419 13.8827C13.5612 14.3992 14.2656 14.6894 15 14.6894C15.7344 14.6894 16.4388 14.3992 16.9581 13.8827C17.4775 13.3662 17.7692 12.6656 17.7692 11.9351C17.7692 11.2047 17.4775 10.5041 16.9581 9.98758C16.4388 9.47106 15.7344 9.18088 15 9.18088Z" fill="white" fill-opacity="0.8"/>
</svg>
