<svg width="43" height="42" viewBox="0 0 43 42" fill="none" xmlns="http://www.w3.org/2000/svg">
<g clip-path="url(#clip0_883_4099)">
<path d="M21.0165 10.1977C19.9747 10.3979 19.2556 10.9004 18.8798 11.6889C18.606 12.2609 18.5488 12.5306 18.5488 13.2578C18.5488 13.9728 18.5979 14.2098 18.9737 15.4436C19.2189 16.2485 19.3905 16.9267 19.4477 17.3026L19.4763 17.5068L19.5416 17.3638C19.5947 17.2494 19.607 17.0738 19.607 16.465V15.7092L19.37 15.0064C19.084 14.1444 18.9982 13.6541 19.0309 13.0944C19.0759 12.3222 19.3169 11.7502 19.7868 11.309C20.273 10.8514 20.8368 10.6512 21.6294 10.6512C22.7284 10.6553 23.4352 11.0516 23.856 11.9096C24.0766 12.3631 24.1584 12.6613 24.187 13.1352C24.2156 13.5765 24.1502 13.9238 23.8356 14.9942C23.6681 15.5621 23.6191 15.7909 23.6027 16.1096C23.5782 16.514 23.6313 16.9961 23.7335 17.278C23.7988 17.4537 23.7988 17.4456 23.9173 16.8327C24.0399 16.1913 24.2156 15.5008 24.4239 14.8349C24.522 14.5284 24.6282 14.1362 24.6527 13.9605C24.7263 13.5111 24.6854 12.6531 24.571 12.2568C24.1951 10.9454 23.186 10.2263 21.6702 10.1936C21.3679 10.1854 21.0737 10.1895 21.0165 10.1977Z" fill="#035CA6"/>
<path d="M20.5682 17.9643C20.2782 18.3729 19.5795 19.0797 19.1424 19.4025C18.648 19.7661 18.3293 19.9459 17.647 20.2441C16.3437 20.812 15.2937 21.4984 14.9628 21.9887C14.8075 22.2174 14.8035 22.4953 14.9546 22.675C15.1793 22.9365 15.2896 22.9651 16.7605 23.1449C17.8554 23.2797 18.1618 23.3451 18.5254 23.5208C19.1015 23.7986 19.6081 24.4441 19.8819 25.2285C19.9472 25.4206 20.0126 25.6657 20.0249 25.7801C20.0371 25.8904 20.0616 25.9844 20.078 25.9844C20.0902 25.9844 20.1719 25.6657 20.2577 25.2776C20.7848 22.8385 20.8134 21.4534 20.3599 20.0357L20.2414 19.6639L20.5274 18.6875C20.6867 18.1523 20.8093 17.6988 20.8052 17.6824C20.797 17.662 20.6908 17.7887 20.5682 17.9643Z" fill="#035CA6"/>
<path d="M22.4883 17.7149C22.4883 17.7272 22.6108 18.1643 22.762 18.6791L23.0317 19.6188L22.8846 20.2153C22.6762 21.0528 22.6354 21.396 22.6394 22.3071C22.6394 23.3081 22.7252 23.9781 23.0235 25.2855C23.1747 25.9474 23.2073 26.0209 23.2441 25.8003C23.4239 24.6809 23.9182 23.9128 24.6986 23.5287C25.2379 23.2631 25.5525 23.1978 26.819 23.1038C27.7056 23.0344 27.9834 22.9812 28.2122 22.826C28.4655 22.6544 28.5186 22.2295 28.3184 21.9312C28.2653 21.8577 28.061 21.6616 27.8608 21.5023C27.5503 21.253 27.2644 21.0896 26.0632 20.4768C23.8733 19.3614 23.6608 19.2061 22.9336 18.2338C22.5577 17.7312 22.4883 17.6495 22.4883 17.7149Z" fill="#035CA6"/>
<path d="M24.082 18.2907C24.082 18.3765 24.5314 18.8667 24.8256 19.0996C25.2178 19.406 25.704 19.6675 26.6641 20.0761C28.4781 20.8483 28.8908 21.1874 29.1523 22.123C29.2135 22.3477 29.2217 22.3599 29.2503 22.2537C29.2667 22.1924 29.2707 21.98 29.2626 21.7839C29.2503 21.506 29.2217 21.3835 29.14 21.2241C28.8499 20.6644 28.1554 20.2232 26.5538 19.5899C25.3159 19.0996 24.8746 18.8667 24.1964 18.3438C24.1311 18.2948 24.082 18.2702 24.082 18.2907Z" fill="#035CA6"/>
<path d="M18.6686 18.6551C18.1906 18.9452 17.6064 19.2312 16.9037 19.5131C16.1478 19.8195 15.0692 20.3425 14.7179 20.5753C14.2644 20.8777 14.0437 21.2454 14.0029 21.7643C13.9906 21.9277 13.9906 22.0625 14.007 22.0625C14.0192 22.0625 14.0764 21.9644 14.1295 21.846C14.4155 21.2045 14.9344 20.8041 16.2786 20.1831C17.1284 19.795 17.8474 19.4191 18.2233 19.1699C18.5788 18.937 19.163 18.4304 19.0772 18.4304C19.0568 18.4304 18.8729 18.5285 18.6686 18.6551Z" fill="#035CA6"/>
<path d="M2.77512 20.718C1.83135 21.5964 0.944773 22.4258 0.809948 22.5565L0.556641 22.7976L0.613839 23.3165C0.997886 26.8301 2.31345 30.2947 4.36034 33.1628C5.6187 34.9359 7.24477 36.5988 8.96481 37.8775C11.6082 39.8468 14.7092 41.1787 17.9286 41.7344C19.2401 41.9591 19.5588 41.9795 21.5485 41.9795C23.5627 41.9795 23.9181 41.9509 25.3481 41.6894C30.9086 40.668 35.8399 37.4118 39.0103 32.6643C40.9878 29.7104 42.1644 26.348 42.4668 22.7976C42.4954 22.4953 42.5076 22.1235 42.4995 21.9723L42.4872 21.6986L41.0368 23.0509C40.2401 23.7945 39.3821 24.5912 39.1329 24.82L38.6835 25.2408L36.8858 23.5698C35.1658 21.9682 35.0923 21.9028 35.0637 22.0131C35.0514 22.0744 35.0105 22.3809 34.9738 22.6954C34.5979 25.9517 32.9146 29.0812 30.353 31.2916C26.394 34.703 20.8458 35.5365 16.0697 33.4365C15.0156 32.9707 13.9247 32.3048 12.9891 31.5571C12.458 31.1322 11.5142 30.2007 11.0812 29.6777C9.38972 27.6268 8.2866 25.0324 8.01695 22.4667C8.00878 22.3849 7.59614 21.9805 6.27649 20.7507C5.32454 19.8641 4.53193 19.1369 4.51968 19.1328C4.50333 19.1246 3.7189 19.8396 2.77512 20.718ZM29.8177 34.6131C29.83 34.6663 29.8423 34.8419 29.8423 35.0013V35.2995H29.6175C29.2866 35.2995 29.0047 35.3731 28.7922 35.5161C28.3306 35.8266 28.2734 36.3495 28.6166 37.089C28.8944 37.6774 29.3152 38.0042 29.7156 37.9388C29.9485 37.9021 30.3325 37.6896 30.6103 37.4445C30.7533 37.3219 30.8841 37.2279 30.9004 37.2361C30.9576 37.2729 31.1987 37.8735 31.1782 37.9307C31.1415 38.0246 30.688 38.3515 30.3775 38.5067C30.2181 38.5884 29.9485 38.6824 29.7769 38.7192C29.0946 38.8703 28.4777 38.5966 28.0364 37.947C27.6605 37.3873 27.4971 36.8643 27.5216 36.276C27.5339 35.9369 27.5543 35.8511 27.6687 35.6182C27.9751 34.9931 28.7596 34.5355 29.5399 34.5274C29.7687 34.5233 29.7932 34.5314 29.8177 34.6131ZM15.1545 34.8379C15.2689 34.8705 15.4691 34.9604 15.6039 35.0299C15.8777 35.1729 16.417 35.6672 16.3965 35.753C16.3884 35.7857 16.2617 35.9205 16.1187 36.0513L15.8572 36.2923L15.5998 36.0186C15.1749 35.5733 14.7745 35.4466 14.3782 35.6305C13.9288 35.8429 13.459 36.6478 13.459 37.2075C13.459 37.7631 13.8553 38.09 14.7092 38.2412L15.0033 38.2943L14.8399 38.6252L14.6806 38.9561L14.509 38.9439C14.0473 38.9153 13.3364 38.6007 13.0014 38.2739C12.7072 37.9879 12.5847 37.6937 12.5683 37.2402C12.552 36.8071 12.6214 36.4925 12.8298 36.0513C13.3282 34.9972 14.1985 34.5437 15.1545 34.8379ZM17.324 35.7367C17.5814 35.8021 17.7448 35.8633 17.7325 35.8919C17.7243 35.9165 17.5405 36.6151 17.324 37.4445C17.1074 38.2779 16.9195 38.9766 16.9154 39.0011C16.9072 39.0256 17.2218 39.1277 17.6712 39.2421C18.1942 39.377 18.4434 39.4587 18.4434 39.4954C18.4434 39.5894 18.3127 40.096 18.28 40.1328C18.2636 40.1532 17.7448 40.0388 17.1319 39.8754C15.7673 39.52 15.8695 39.5526 15.8695 39.4954C15.8695 39.426 16.8664 35.6264 16.8827 35.6264C16.8909 35.6264 17.0911 35.6754 17.324 35.7367ZM26.9251 37.6692C27.2234 38.7355 27.4644 39.6098 27.4603 39.6139C27.3664 39.6466 26.6065 39.8427 26.5983 39.8305C26.5779 39.8019 25.5442 36.0921 25.5401 36.0145C25.5319 35.9573 25.6096 35.9205 25.9201 35.8266C26.1325 35.7653 26.3245 35.7203 26.345 35.7244C26.3654 35.7285 26.6228 36.6028 26.9251 37.6692ZM24.8742 36.3291C24.9068 36.517 25.1847 39.904 25.1847 40.0838V40.2309L24.8088 40.2595C24.6004 40.2758 24.3553 40.2962 24.2613 40.3085L24.0979 40.333L23.1214 38.9194C22.5821 38.1431 22.1409 37.5139 22.1368 37.518C22.1327 37.5221 22.1531 37.6896 22.1858 37.8939C22.2144 38.0941 22.2798 38.7478 22.3288 39.3361C22.4024 40.1941 22.4105 40.4188 22.3697 40.4474C22.3166 40.4801 21.6629 40.5332 21.6343 40.5087C21.6179 40.4923 21.3074 36.8235 21.3033 36.6233V36.4966L21.6424 36.468C21.8263 36.4517 22.0714 36.4312 22.1858 36.419L22.3901 36.3945L23.3461 37.7672C23.8732 38.519 24.3103 39.1318 24.3185 39.1196C24.3267 39.1114 24.3144 38.9439 24.2899 38.7437C24.2327 38.2984 24.0815 36.5742 24.0815 36.3822V36.2433L24.3389 36.227C24.4779 36.2188 24.6494 36.2106 24.723 36.2065C24.8415 36.1984 24.8578 36.2106 24.8742 36.3291ZM20.2779 36.3209C20.4454 36.3454 20.5884 36.37 20.5965 36.3781C20.617 36.3986 20.2002 40.3371 20.1757 40.3616C20.1553 40.382 19.3463 40.3003 19.3218 40.2758C19.3096 40.2635 19.3954 39.3606 19.5138 38.2698L19.7263 36.2801H19.8529C19.9183 36.2801 20.1103 36.3005 20.2779 36.3209Z" fill="#035CA6"/>
<path d="M13.2965 22.5196C13.1086 22.7729 12.8267 23.3816 12.7204 23.7371C12.5897 24.1987 12.5693 25.024 12.6755 25.5388C12.7204 25.7513 12.7899 26.0087 12.8308 26.1026L12.9084 26.2783V25.3264C12.9084 24.7135 12.9288 24.26 12.9615 24.0639C13.0391 23.6349 13.1903 23.0793 13.3374 22.6993C13.4068 22.5237 13.4558 22.3684 13.4436 22.3602C13.4354 22.348 13.366 22.4215 13.2965 22.5196Z" fill="#035CA6"/>
<path d="M29.7801 22.4178C29.9231 22.7569 30.1438 23.4474 30.2173 23.7906C30.2949 24.1583 30.3072 24.3299 30.3113 25.2369C30.3113 25.8048 30.3235 26.2542 30.3399 26.2378C30.3848 26.1888 30.5319 25.7067 30.5809 25.4412C30.6054 25.3022 30.6259 24.9672 30.6259 24.6976C30.6218 23.9336 30.4093 23.2349 29.9803 22.5812C29.8333 22.3606 29.7148 22.2626 29.7801 22.4178Z" fill="#035CA6"/>
<path d="M14.0918 23.1534C13.818 23.227 13.6628 23.4803 13.5157 24.0849C13.3114 24.9306 13.4013 25.6947 13.8058 26.5445C13.9529 26.8591 14.5249 27.8927 14.7986 28.3503C14.8762 28.481 14.9089 28.4361 15.0723 27.9744C15.2725 27.4188 15.2848 27.1818 15.1581 26.5363C14.962 25.5353 14.9252 25.2289 14.8966 24.4118C14.868 23.6968 14.8558 23.5742 14.7822 23.4517C14.6556 23.231 14.3287 23.0921 14.0918 23.1534Z" fill="#035CA6"/>
<path d="M28.8165 23.161C28.6204 23.2223 28.5346 23.2918 28.4448 23.4634C28.3712 23.6145 28.3549 23.7126 28.3467 24.2478C28.3304 24.9955 28.2813 25.449 28.1179 26.2702C27.9831 26.9525 27.9627 27.3243 28.0444 27.6184C28.1179 27.8881 28.3304 28.4355 28.363 28.4355C28.3998 28.4315 29.1516 27.0996 29.3804 26.6379C29.7113 25.9638 29.8747 25.2733 29.8257 24.7381C29.7971 24.4398 29.6745 23.8515 29.5887 23.635C29.4416 23.2468 29.1434 23.063 28.8165 23.161Z" fill="#035CA6"/>
<path d="M16.4214 23.6071L16.1395 23.6766L16.0578 23.9217C15.9638 24.22 15.9475 25.0126 16.0292 25.3925C16.1804 26.1075 16.4745 26.8715 16.8259 27.4721C17.0956 27.9256 17.6716 28.7264 18.0026 29.0982C18.1374 29.2534 18.2395 29.376 18.2273 29.376C18.2191 29.376 18.0026 29.2861 17.7452 29.1758C17.451 29.0491 17.2753 28.992 17.2672 29.0206C17.259 29.0655 17.7738 31.4597 17.7983 31.4842C17.8065 31.4883 18.2068 31.4311 18.6889 31.3575C19.171 31.2799 19.5796 31.2145 19.5959 31.2145C19.6409 31.2145 19.788 30.7242 19.8533 30.3361C20.0249 29.3883 19.8697 27.1207 19.5265 25.4456C19.4407 25.0207 19.2528 24.6694 18.93 24.3303C18.6236 24.0116 18.2273 23.7706 17.7901 23.6357C17.4469 23.5336 16.7687 23.5172 16.4214 23.6071Z" fill="#035CA6"/>
<path d="M25.5942 23.5944C24.7117 23.7905 23.9477 24.4973 23.7393 25.3062C23.7025 25.437 23.6249 25.9232 23.5636 26.3889C23.4615 27.1407 23.4492 27.3572 23.4492 28.4154C23.4492 29.4899 23.4574 29.6411 23.5432 30.0619C23.5963 30.3152 23.6903 30.6747 23.7597 30.8627L23.8782 31.1977L24.585 31.3366C24.9691 31.4101 25.3245 31.4755 25.3654 31.4755C25.4348 31.4796 25.4716 31.3366 25.7167 30.2335C25.8679 29.5471 25.9864 28.9833 25.9823 28.9751C25.9782 28.971 25.7658 29.0568 25.5084 29.1671C25.251 29.2734 25.0344 29.3592 25.0263 29.351C25.0181 29.3428 25.0916 29.2488 25.1897 29.1426C25.4267 28.8893 25.7944 28.399 26.1416 27.8843C26.6646 27.1039 27.0691 26.1356 27.2121 25.3144C27.2938 24.8487 27.2733 24.2195 27.163 23.9008C27.0895 23.6924 27.0731 23.6761 26.9016 23.623C26.6237 23.5372 25.9088 23.5249 25.5942 23.5944Z" fill="#035CA6"/>
<path d="M15.4609 25.5429C15.4609 25.7186 15.7796 27.0464 16.0125 27.839C16.4823 29.4529 16.6376 30.2414 16.6784 31.2505L16.707 31.8838L16.9685 31.6387L17.23 31.3976L17.2055 30.8869C17.1483 29.7266 16.9277 28.9503 16.0452 26.8626C15.796 26.2783 15.5712 25.7309 15.5467 25.6451C15.4936 25.4939 15.4609 25.449 15.4609 25.5429Z" fill="#035CA6"/>
<path d="M27.7056 25.5843C27.6893 25.6456 27.5463 26.0052 27.387 26.381C26.3819 28.7629 26.1572 29.4657 26.0469 30.5565C26.0224 30.7894 26.002 31.0754 26.002 31.1939C26.002 31.4063 26.006 31.4145 26.2389 31.6188C26.3656 31.7332 26.4841 31.8271 26.4963 31.8271C26.5086 31.8271 26.5331 31.5616 26.5453 31.2388C26.5944 30.2419 26.7823 29.3022 27.2807 27.619C27.5136 26.8264 27.7751 25.6742 27.7506 25.5476C27.7383 25.4904 27.7261 25.5026 27.7056 25.5843Z" fill="#035CA6"/>
<path d="M20.0578 0.024189C19.9924 0.0323601 19.7064 0.0609589 19.4245 0.085474C16.9936 0.30201 14.4319 1.0415 12.1113 2.20181C10.0767 3.21913 8.29533 4.5061 6.65292 6.14442C3.49883 9.30259 1.4642 13.2656 0.753307 17.6495C0.589883 18.6791 0.540856 19.2592 0.520428 20.5257L0.5 21.7882L0.60214 21.7106C0.659339 21.6697 1.55409 20.8403 2.58774 19.8761C3.62549 18.9078 4.48755 18.1193 4.50798 18.1193C4.5284 18.1193 5.2965 18.818 6.21167 19.6719C7.12685 20.5257 7.89086 21.2285 7.90311 21.2366C7.91945 21.2407 7.94397 20.9302 7.95622 20.5421C8.20953 13.2411 14.2195 7.43956 21.5286 7.43547C23.22 7.43547 24.8584 7.74598 26.4313 8.3629C30.1696 9.83372 33.0582 12.8489 34.3615 16.6403C34.7823 17.866 35.0724 19.4431 35.0724 20.5053V20.8608L36.8496 22.5113C37.8261 23.4224 38.6514 24.166 38.684 24.166C38.7126 24.166 39.587 23.3775 40.6247 22.4133L42.5082 20.6606V20.1417C42.5082 18.5973 42.1119 16.3421 41.5235 14.5117C40.9761 12.8203 40.0037 10.8143 38.9945 9.31485C38.2183 8.15454 37.4624 7.24754 36.3634 6.14442C35.4564 5.2415 35.0438 4.87789 34.1286 4.18742C31.4934 2.20181 28.3965 0.857653 25.1239 0.285667C23.935 0.0773029 23.363 0.0323601 21.7329 0.0201035C20.879 0.0119324 20.1272 0.0160179 20.0578 0.024189ZM23.3916 1.79325C23.4243 1.82594 24.6623 6.13217 24.6459 6.14442C24.6255 6.16076 23.6735 6.10357 23.6572 6.08314C23.649 6.07497 23.5918 5.84617 23.5224 5.57652L23.4039 5.08625L23.0975 5.06174C22.934 5.04539 22.5909 5.02088 22.3457 5.00863L21.8963 4.98003L21.7125 5.47847L21.5286 5.97283L21.0383 5.94423C20.7687 5.92789 20.544 5.91154 20.5358 5.90337C20.5276 5.89929 20.9158 4.95143 21.3938 3.80337L22.264 1.71154L22.8156 1.74014C23.1179 1.75648 23.3794 1.77691 23.3916 1.79325ZM19.5062 1.8382C19.6247 1.86271 19.7922 1.89948 19.8739 1.91991L20.0292 1.96077L19.9189 2.34073C19.8576 2.54501 19.7963 2.71251 19.78 2.71251C19.0609 2.56135 18.7626 2.55318 18.5175 2.67983C18.2928 2.79831 18.2519 3.06796 18.4358 3.26816C18.5134 3.35396 18.6973 3.44384 19.0977 3.59501C20.021 3.9382 20.3111 4.2201 20.356 4.82477C20.3805 5.20882 20.3111 5.43353 20.0864 5.68275C19.7554 6.05045 19.2733 6.22205 18.5665 6.22205C18.2887 6.22205 18.0558 6.20162 17.9128 6.15668L17.684 6.09131L17.6391 5.67049C17.6105 5.4417 17.5982 5.24559 17.6023 5.23742C17.6105 5.23333 17.7535 5.26602 17.9169 5.31096C18.5461 5.48664 19.1467 5.45804 19.3469 5.24559C19.4695 5.11485 19.4776 4.86563 19.3632 4.73898C19.257 4.62049 19.1263 4.55512 18.6646 4.38761C18.158 4.20785 17.9823 4.11388 17.7698 3.91777C17.5247 3.68897 17.4062 3.40707 17.4062 3.02302C17.4062 2.76154 17.4226 2.68392 17.5247 2.50006C17.778 2.03431 18.2438 1.81368 18.9792 1.80143C19.1508 1.79734 19.3877 1.81777 19.5062 1.8382ZM26.799 2.28761C26.9788 2.33664 27.1463 2.39384 27.1708 2.41427C27.1912 2.43061 27.4119 3.21096 27.657 4.14248C27.9062 5.07808 28.1187 5.82574 28.1309 5.8094C28.1473 5.79306 28.1881 5.64189 28.2249 5.47438C28.2617 5.30687 28.4333 4.65318 28.6049 4.01991L28.9154 2.87185L29.3158 2.97808C29.5405 3.03528 29.7202 3.10473 29.7202 3.12516C29.7202 3.1701 28.6212 7.19851 28.6049 7.21485C28.5803 7.24345 27.5263 6.92886 27.4936 6.88392C27.4691 6.85532 27.2484 6.05862 27.0033 5.11077C26.7582 4.16699 26.5539 3.3989 26.5457 3.40298C26.5416 3.41115 26.4967 3.59501 26.4517 3.81971C26.3823 4.13431 25.8757 6.04637 25.7735 6.3773C25.7572 6.43859 25.7163 6.4345 25.3772 6.34462C25.1689 6.28742 24.9891 6.23022 24.9728 6.21388C24.9523 6.19753 25.9696 2.3775 26.0595 2.13645C26.0759 2.09968 26.1249 2.09968 26.2761 2.14462C26.3823 2.17322 26.6193 2.23859 26.799 2.28761ZM15.5922 2.81057C16.1029 3.06388 16.487 3.58683 16.7035 4.33858C16.9609 5.23742 16.8302 5.94423 16.3195 6.45084C15.866 6.89209 14.9875 7.17399 14.3624 7.07185C13.7619 6.9738 13.3084 6.60609 12.9979 5.96057C12.7323 5.41718 12.6669 5.13936 12.6669 4.57555C12.6628 4.17925 12.6792 4.06894 12.7568 3.86874C13.0591 3.11699 13.8967 2.64715 14.8895 2.66757C15.2858 2.67575 15.343 2.688 15.5922 2.81057Z" fill="#4898D3"/>
<path d="M22.4932 3.34965C22.3298 3.79907 22.2031 4.17903 22.2113 4.1872C22.2195 4.19537 22.4483 4.2158 22.722 4.23214L23.2164 4.26074L23.0162 3.42728C22.9059 2.96969 22.8078 2.57747 22.8037 2.56113C22.7996 2.5407 22.6566 2.89615 22.4932 3.34965Z" fill="#4898D3"/>
<path d="M14.2403 3.54188C13.9951 3.62767 13.7214 3.9055 13.6601 4.13429C13.4926 4.75939 13.8889 5.87884 14.3792 6.15666C14.6938 6.33643 15.2984 6.24246 15.6008 5.97281C15.9195 5.68273 15.944 5.05764 15.6621 4.32631C15.5232 3.97086 15.2453 3.6195 15.0247 3.52962C14.8531 3.45608 14.465 3.46425 14.2403 3.54188Z" fill="#4898D3"/>
<path d="M21.451 18.3482C21.2303 18.5239 21.3611 18.8916 21.643 18.8916C21.8432 18.8916 21.9576 18.7813 21.9576 18.5852C21.9576 18.4136 21.8146 18.2624 21.6512 18.2624C21.6021 18.2624 21.5122 18.2992 21.451 18.3482Z" fill="#4898D3"/>
<path d="M21.2991 20.4236C21.0376 20.6851 21.2133 21.1631 21.5688 21.1631C21.9446 21.1631 22.1489 20.8403 21.9773 20.5094C21.8997 20.3582 21.8017 20.3051 21.5892 20.3051C21.4544 20.3051 21.3931 20.3296 21.2991 20.4236Z" fill="#4898D3"/>
<path d="M21.3043 22.4179C20.9162 22.6181 20.9489 23.2064 21.3574 23.3658C21.7864 23.5292 22.1991 23.1166 22.0356 22.6876C21.9253 22.4016 21.5821 22.2749 21.3043 22.4179Z" fill="#4898D3"/>
<path d="M21.1681 24.4806C20.9965 24.5827 20.8535 24.8319 20.8535 25.0403C20.8535 25.3835 21.1354 25.6572 21.4868 25.6572C21.8667 25.6572 22.1201 25.4039 22.1201 25.0199C22.1201 24.5255 21.6012 24.2314 21.1681 24.4806Z" fill="#4898D3"/>
<path d="M21.3158 26.6583C21.1279 26.74 21.0176 26.9402 21.0176 27.1976C21.0176 27.3774 21.038 27.4346 21.1442 27.5572C21.3812 27.8227 21.7734 27.835 22.0186 27.5776C22.1738 27.4142 22.2106 27.0546 22.088 26.8585C21.9409 26.6256 21.5977 26.5358 21.3158 26.6583Z" fill="#4898D3"/>
<path d="M21.348 28.9906C21.0253 29.2602 21.2214 29.7832 21.6504 29.7832C21.7607 29.7832 21.8587 29.7546 21.9241 29.7015C22.2795 29.4237 22.0957 28.8844 21.6504 28.8844C21.5196 28.8844 21.442 28.913 21.348 28.9906Z" fill="#4898D3"/>
<path d="M13.4277 37.2195C13.4277 37.2971 13.4359 37.3298 13.4482 37.2889C13.4563 37.2522 13.4563 37.1868 13.4482 37.146C13.4359 37.1092 13.4277 37.1419 13.4277 37.2195Z" fill="#4898D3"/>
<path d="M22.2184 1.90342C21.2051 4.30984 20.5719 5.85828 20.5882 5.87462C20.6005 5.88688 20.8129 5.89914 21.0662 5.89914L21.5238 5.90322L21.6954 5.44155C21.7935 5.18416 21.8752 4.9717 21.8833 4.96353C21.9119 4.9431 23.3828 5.04524 23.4114 5.07384C23.4277 5.09019 23.489 5.31898 23.5543 5.58046C23.6156 5.83785 23.6728 6.05847 23.681 6.06256C23.6851 6.07073 23.9016 6.08707 24.159 6.09933L24.6207 6.12793L24.5962 6.03396C24.5553 5.86237 23.3828 1.8217 23.3746 1.81353C23.3705 1.80945 23.1213 1.78902 22.8271 1.77268L22.2837 1.74408L22.2184 1.90342ZM23.0355 3.40283L23.2561 4.29758L22.7168 4.26898C22.4226 4.25264 22.1734 4.23221 22.1652 4.22404C22.1571 4.21587 22.296 3.81548 22.4717 3.32929C22.6473 2.8431 22.7985 2.45906 22.8026 2.47949C22.8108 2.49583 22.9129 2.91256 23.0355 3.40283Z" fill="white"/>
<path d="M18.3699 1.9037C18.1125 1.97316 17.9655 2.04261 17.7939 2.1897C17.3363 2.57374 17.2995 3.37044 17.7162 3.82394C17.9369 4.0609 18.1085 4.15896 18.705 4.37549C19.3055 4.59612 19.4649 4.72277 19.4649 4.98016C19.4649 5.43775 18.8766 5.58483 17.9655 5.34787C17.7939 5.30701 17.6468 5.27841 17.6386 5.28658C17.6223 5.29884 17.7081 6.05876 17.7285 6.07919C17.7326 6.08328 17.8715 6.12005 18.039 6.15273C18.2515 6.19767 18.4557 6.20993 18.7295 6.19767C19.4322 6.15682 19.9388 5.92394 20.1799 5.5358C20.282 5.3683 20.3065 5.28658 20.3147 5.0251C20.3351 4.65331 20.282 4.44086 20.1186 4.21616C19.9388 3.96693 19.6937 3.84028 18.7581 3.49709C18.4925 3.39903 18.3291 3.25195 18.2964 3.08853C18.2637 2.90059 18.3699 2.70448 18.5456 2.63094C18.7295 2.5574 19.2238 2.5574 19.518 2.63503C19.6487 2.66771 19.7631 2.69631 19.7713 2.69631C19.7836 2.69631 19.853 2.47977 19.9797 2.03853C20.0246 1.8751 18.8439 1.77296 18.3699 1.9037Z" fill="white"/>
<path d="M26.0667 2.19434C25.9156 2.70096 24.98 6.18189 24.9963 6.19823C25.0167 6.21866 25.7276 6.41886 25.7358 6.40251C25.7644 6.36574 26.3241 4.2494 26.414 3.84901C26.4753 3.57119 26.5325 3.33831 26.5447 3.32605C26.557 3.30971 26.8389 4.35563 27.3374 6.29629L27.4926 6.89279L28.036 7.04395C28.3383 7.12975 28.5876 7.19103 28.5916 7.18286C28.5957 7.17469 28.8082 6.41477 29.0574 5.49551C29.3066 4.57216 29.5599 3.66107 29.613 3.46905L29.7111 3.1136L29.3352 3.01146C29.1309 2.95835 28.9512 2.92158 28.9389 2.93792C28.9021 2.97061 28.3955 4.84998 28.2566 5.471C28.1912 5.7529 28.13 5.96127 28.1177 5.94084C28.1054 5.92041 27.8889 5.11963 27.6356 4.1636L27.1739 2.41905L26.6796 2.28831C26.4099 2.21477 26.1648 2.14531 26.1362 2.13714C26.1117 2.12489 26.079 2.15349 26.0667 2.19434Z" fill="white"/>
<path d="M14.4726 2.69633C13.8311 2.80664 13.2428 3.13349 12.965 3.54205C12.5728 4.10995 12.5932 5.08232 13.0099 5.94847C13.537 7.03932 14.6033 7.36209 15.7677 6.78602C16.1681 6.58582 16.3805 6.40606 16.5521 6.12415C16.8586 5.60936 16.8872 4.98835 16.6379 4.208C16.2743 3.06403 15.498 2.52473 14.4726 2.69633ZM15.0323 3.50936C15.2325 3.59925 15.4654 3.84847 15.6043 4.1222C15.8453 4.60022 15.9515 5.30703 15.8372 5.64205C15.7268 5.96072 15.3428 6.23037 14.9301 6.2794C14.3255 6.34886 13.8924 5.9117 13.6595 4.98427C13.4634 4.21209 13.6759 3.71773 14.2969 3.50528C14.5624 3.41539 14.828 3.41539 15.0323 3.50936Z" fill="white"/>
<path d="M29.4057 34.5637C28.6294 34.6454 27.9553 35.0703 27.6938 35.6423C27.4446 36.1898 27.5059 36.8925 27.8654 37.5871C28.4578 38.7269 29.3893 39.0252 30.4802 38.4205C30.7498 38.2734 31.1502 37.9343 31.1502 37.8608C31.1461 37.8322 31.0889 37.6892 31.0154 37.538L30.8847 37.2643L30.6395 37.4686C30.1411 37.8853 29.7529 38.0365 29.4097 37.9507C28.9113 37.824 28.372 36.9538 28.372 36.2715C28.3761 35.6587 28.7479 35.3359 29.5241 35.2746C29.7815 35.2501 29.8428 35.2337 29.8265 35.1888C29.8101 35.1561 29.802 34.9927 29.802 34.8252C29.802 34.6087 29.7856 34.5229 29.7529 34.5269C29.7243 34.531 29.5691 34.5474 29.4057 34.5637Z" fill="white"/>
<path d="M14.2514 34.8093C13.8306 34.8951 13.3404 35.2628 13.0462 35.7245C12.8419 36.0309 12.654 36.5252 12.6009 36.8848C12.5478 37.228 12.5968 37.5875 12.7439 37.8694C12.9522 38.2861 13.5487 38.6947 14.1861 38.8581C14.6518 38.9766 14.6437 38.9807 14.8153 38.6334L14.9664 38.327L14.7335 38.2821C13.8592 38.1105 13.467 37.8245 13.4262 37.3219C13.3771 36.705 13.8797 35.8103 14.4067 35.5856C14.8071 35.414 15.2483 35.5651 15.6406 36.0064L15.853 36.2433L16.1145 36.0023L16.376 35.7653L16.282 35.6346C16.233 35.561 16.0859 35.418 15.9592 35.3159C15.4281 34.8828 14.8112 34.699 14.2514 34.8093Z" fill="white"/>
<path d="M16.8751 35.7372C16.8465 35.8312 15.9027 39.4347 15.8945 39.4797C15.8905 39.5123 18.1008 40.117 18.2233 40.1211C18.2478 40.1211 18.305 39.974 18.35 39.7983L18.4317 39.4756L17.8556 39.3244C17.5369 39.2427 17.1856 39.1487 17.0712 39.116L16.8669 39.0588L17.2836 37.4736C17.5124 36.6034 17.6922 35.8884 17.6881 35.8802C17.6759 35.868 16.965 35.6678 16.9241 35.6678C16.9078 35.6678 16.8873 35.7005 16.8751 35.7372Z" fill="white"/>
<path d="M25.9203 35.8593C25.7282 35.9165 25.5689 35.9655 25.5607 35.9737C25.5444 35.9859 26.6026 39.7528 26.6271 39.7814C26.6475 39.8019 27.293 39.6384 27.3747 39.5935C27.4319 39.5649 26.3738 35.7449 26.3084 35.753C26.288 35.7571 26.1123 35.8021 25.9203 35.8593Z" fill="white"/>
<path d="M24.2865 36.2678L24.0985 36.2841L24.1884 37.3627C24.2415 37.9551 24.3028 38.617 24.3314 38.8335C24.3559 39.0501 24.3723 39.2339 24.3641 39.2421C24.3518 39.2503 23.9065 38.6211 23.3672 37.8489L22.3867 36.4394L22.0598 36.4639C21.88 36.4761 21.639 36.4966 21.5287 36.5088L21.3203 36.5333L21.4878 38.4985L21.6553 40.4678L22.019 40.4514C22.2232 40.4473 22.3867 40.4351 22.3907 40.431C22.4193 40.3901 22.1456 37.6691 22.0925 37.4853C22.0435 37.3178 22.1987 37.5221 23.1425 38.8948L24.1026 40.288L24.3886 40.2635C25.2139 40.1981 25.1935 40.2022 25.169 40.0837C25.1567 40.0265 25.0791 39.1359 24.9974 38.1063L24.8421 36.2392L24.6542 36.2473C24.552 36.2514 24.3886 36.2596 24.2865 36.2678Z" fill="white"/>
<path d="M19.7504 36.3296C19.7504 36.3418 19.6605 37.212 19.5461 38.262C19.4358 39.312 19.3418 40.1945 19.3418 40.2231C19.3418 40.2517 19.4848 40.2844 19.7463 40.3089L20.1548 40.3457L20.1753 40.1823C20.2856 39.3692 20.5716 36.4317 20.543 36.4031C20.5021 36.3663 19.7504 36.2969 19.7504 36.3296Z" fill="white"/>
</g>
<defs>
<clipPath id="clip0_883_4099">
<rect width="42" height="42" fill="white" transform="translate(0.5)"/>
</clipPath>
</defs>
</svg>
