<svg width="20" height="20" viewBox="0 0 20 20" fill="none" xmlns="http://www.w3.org/2000/svg">
<path d="M3.63654 2.72754H7.2729L9.09109 7.27299L6.81836 8.63663C7.79196 10.6107 9.38969 12.2085 11.3638 13.1821L12.7274 10.9094L17.2729 12.7275V16.3639C17.2729 16.8461 17.0813 17.3086 16.7404 17.6496C16.3994 17.9905 15.9369 18.1821 15.4547 18.1821C11.9086 17.9666 8.56395 16.4607 6.05184 13.9486C3.53973 11.4365 2.03386 8.09184 1.81836 4.54572C1.81836 4.06351 2.00992 3.60105 2.35089 3.26007C2.69187 2.9191 3.15433 2.72754 3.63654 2.72754" stroke="#5489B6" stroke-width="1.5" stroke-linecap="round" stroke-linejoin="round"/>
<path d="M12.7275 5.4541C13.2098 5.4541 13.6722 5.64566 14.0132 5.98663C14.3542 6.32761 14.5457 6.79007 14.5457 7.27228" stroke="#5489B6" stroke-width="1.5" stroke-linecap="round" stroke-linejoin="round"/>
<path d="M12.7275 1.81836C14.1742 1.81836 15.5616 2.39303 16.5845 3.41596C17.6074 4.43888 18.1821 5.82627 18.1821 7.2729" stroke="#5489B6" stroke-width="1.5" stroke-linecap="round" stroke-linejoin="round"/>
</svg>
