<svg width="16" height="16" viewBox="0 0 16 16" fill="none" xmlns="http://www.w3.org/2000/svg">
<path d="M1.75001 13.737V9.14815M1.75001 9.14815H5.75206M1.75001 9.14815L4.84493 12.4827C5.56179 13.3051 6.44866 13.9059 7.42279 14.2289C8.39691 14.552 9.42653 14.5869 10.4156 14.3303C11.4046 14.0737 12.3209 13.534 13.0788 12.7615C13.8368 11.9891 14.4117 11.0091 14.75 9.91296M14.75 2.263V6.85185M14.75 6.85185H10.7479M14.75 6.85185L11.6551 3.51729C10.9382 2.6949 10.0513 2.09413 9.07721 1.77105C8.10309 1.44797 7.07347 1.41311 6.08441 1.66971C5.09536 1.9263 4.17911 2.46601 3.42117 3.23845C2.66322 4.0109 2.08829 4.99091 1.75 6.08704" stroke="#1E91CD" stroke-width="2" stroke-linecap="round" stroke-linejoin="round"/>
</svg>
